<svg xmlns="http://www.w3.org/2000/svg" version="1.1" xmlns:xlink="http://www.w3.org/1999/xlink" xmlns:svgjs="http://svgjs.com/svgjs" width="1837.03" height="1064.47"><svg xmlns="http://www.w3.org/2000/svg" viewBox="0 0 1837.03 1064.47"><defs><style>.a{fill:#fff;}</style></defs><title>CloseBuyWhiteLogo</title><path class="a" d="M8802.08,12132.93l-5.2-1-363.9-68.22s-38.66-14.5-76.09-90.63c-91.32-128.28-232.64-117.41-232.64-117.41s-850.12,30.44-984.92,37S6985,12007.89,6985,12007.89c-14.1,239.46,87,537,110.89,565.3,12.83,15.16,55.69,45.34,100.06,76.11l-31.77,70.12s0,18.82,11.59,23.18,23.2,2.91,30.44-8.69c4.86-7.77,20.13-37.88,29.67-56.91,23.94,16.73,45.63,32.26,60,44,26.1,21.35,80.69,23.28,124.89,20.63l-21.8,170.54s20.3,17.39,37.69,0c14.1-14.1,32-132,38.28-176.17,7.73-1.14,12.27-2,12.27-2s704.7-84.92,1055.44-137.67l55.1,146.19s29,17.39,42,0,0-27.53,0-27.53L8597.41,12588c78.45-12.43,130.2-22.35,137.8-27.84,66.87-45.11,58.7-141.32,78.27-289.17C8828,12161.26,8818.57,12137.75,8802.08,12132.93Zm-136.21,313.49S7512,12579.78,7455,12584.61a95.67,95.67,0,0,1-58-13.72q-0.73-1.14-1.44-2.31l-0.18-.3c-0.43-.71-0.85-1.42-1.26-2.15q-1.62-2.82-3.12-5.81c-0.34-.68-0.68-1.36-1-2.05-0.12-.24-0.23-0.49-0.35-0.73l-0.33-.7c-0.29-.61-0.58-1.23-0.86-1.86l-0.15-.34c-0.38-.84-0.75-1.69-1.12-2.55-0.53-1.24-1-2.49-1.55-3.76-0.32-.81-0.64-1.63-1-2.45-0.43-1.11-.84-2.24-1.25-3.37v0c-0.41-1.16-.82-2.33-1.22-3.51-0.24-.7-0.47-1.41-0.7-2.13s-0.47-1.44-.7-2.17l-0.63-2q-0.77-2.52-1.49-5.12c-0.2-.68-0.38-1.36-0.56-2-0.76-2.8-1.49-5.65-2.17-8.54-0.22-.9-0.43-1.81-0.63-2.71q-0.63-2.73-1.21-5.5c-0.24-1.15-.48-2.31-0.71-3.47-0.33-1.63-.65-3.28-1-4.94q-0.89-4.69-1.66-9.49c0-.15,0-0.29-0.07-0.44-0.26-1.58-.51-3.17-0.74-4.76s-0.5-3.32-.73-5l-0.57-4.14-0.3-2.32c-0.16-1.21-.31-2.43-0.46-3.65-0.61-5-1.17-10.08-1.68-15.17,0-.08,0-0.16,0-0.24-0.18-1.73-.34-3.46-0.5-5.19s-0.31-3.47-.46-5.2c-0.13-1.49-.25-3-0.38-4.46-0.15-2-.31-4-0.46-6q-0.2-2.47-.36-4.95c-0.65-9.3-1.19-18.6-1.66-27.81-0.07-1.26-.13-2.51-0.19-3.76q-0.29-5.7-.53-11.32c-0.11-2.3-.21-4.58-0.31-6.86-0.52-11.94-1-23.56-1.53-34.63-0.05-1-.09-1.9-0.14-2.84l-0.18-3.56,686.88-60.27s336.29-17.39,404.91-13.53,202,28,225.16,35.76,31.89,22.22,37.69,84.07S8665.87,12446.42,8665.87,12446.42Z" transform="translate(-6983.62 -11855.47)"></path></svg><style>@media (prefers-color-scheme: light) { :root { filter: none; } }
</style></svg>